 <svg
        width="34"
        height="34"
        viewBox="0 0 34 34"
        fill="none"
        xmlns="http://www.w3.org/2000/svg"
      >
        <path
          d="M16.9999 26.9168C22.4767 26.9168 26.9166 22.477 26.9166 17.0002C26.9166 11.5233 22.4767 7.0835 16.9999 7.0835C11.5231 7.0835 7.08325 11.5233 7.08325 17.0002C7.08325 22.477 11.5231 26.9168 16.9999 26.9168Z"
          stroke="#37474F"
          stroke-width="2"
          stroke-linecap="round"
          stroke-linejoin="round"
        />
        <path
          d="M17.0001 19.8332C18.5649 19.8332 19.8334 18.5646 19.8334 16.9998C19.8334 15.435 18.5649 14.1665 17.0001 14.1665C15.4353 14.1665 14.1667 15.435 14.1667 16.9998C14.1667 18.5646 15.4353 19.8332 17.0001 19.8332Z"
          fill="#37474F"
          stroke="#37474F"
          stroke-width="2"
          stroke-linecap="round"
          stroke-linejoin="round"
        />
        <path
          d="M17 29.7502V24.0835"
          stroke="#37474F"
          stroke-width="2"
          stroke-linecap="round"
          stroke-linejoin="round"
        />
        <path
          d="M17 4.25V9.91667"
          stroke="#37474F"
          stroke-width="2"
          stroke-linecap="round"
          stroke-linejoin="round"
        />
        <path
          d="M9.91667 17H4.25"
          stroke="#37474F"
          stroke-width="2"
          stroke-linecap="round"
          stroke-linejoin="round"
        />
        <path
          d="M29.7499 17H24.0833"
          stroke="#37474F"
          stroke-width="2"
          stroke-linecap="round"
          stroke-linejoin="round"
        />
      </svg>