<svg width="34" height="35" viewBox="0 0 34 35" fill="none" xmlns="http://www.w3.org/2000/svg">
<path d="M17 27.3488C22.4769 27.3488 26.9167 22.9089 26.9167 17.4321C26.9167 11.9553 22.4769 7.51544 17 7.51544C11.5232 7.51544 7.08337 11.9553 7.08337 17.4321C7.08337 22.9089 11.5232 27.3488 17 27.3488Z" stroke="#37474F" stroke-width="2" stroke-linecap="round" stroke-linejoin="round"/>
<path d="M17 20.2655C18.5648 20.2655 19.8333 18.997 19.8333 17.4321C19.8333 15.8673 18.5648 14.5988 17 14.5988C15.4352 14.5988 14.1666 15.8673 14.1666 17.4321C14.1666 18.997 15.4352 20.2655 17 20.2655Z" fill="#37474F" stroke="#37474F" stroke-width="2" stroke-linecap="round" stroke-linejoin="round"/>
<path d="M17 30.1821V24.5154" stroke="#37474F" stroke-width="2" stroke-linecap="round" stroke-linejoin="round"/>
<path d="M17 4.68213V10.3488" stroke="#37474F" stroke-width="2" stroke-linecap="round" stroke-linejoin="round"/>
<path d="M9.91667 17.4321H4.25" stroke="#37474F" stroke-width="2" stroke-linecap="round" stroke-linejoin="round"/>
<path d="M29.75 17.4321H24.0834" stroke="#37474F" stroke-width="2" stroke-linecap="round" stroke-linejoin="round"/>
</svg>
